<svg xmlns="http://www.w3.org/2000/svg" width="305" height="65" viewBox="0 0 305 65" fill="none"><path d="M129.42 21.3527H140.557V24.4477H133.021V27.7396H140.293V30.8108H133.021V36.7345H129.42V21.3527Z" fill="#010101"></path><path d="M142.083 36.7345V21.3527H145.685V36.7345H142.083Z" fill="#010101"></path><path d="M147.762 21.3527H153.751C155.32 21.3527 156.712 21.6622 157.883 22.3029C159.054 22.9435 159.982 23.8287 160.623 24.9779C161.263 26.1272 161.573 27.4756 161.573 29.0447C161.573 30.6138 161.263 31.9622 160.623 33.1114C159.982 34.2607 159.054 35.1437 157.883 35.7865C156.712 36.4272 155.32 36.7367 153.751 36.7367H147.762V21.3549V21.3527ZM153.53 33.6179C154.879 33.6179 155.939 33.2197 156.736 32.4254C157.532 31.6289 157.928 30.5034 157.928 29.0447C157.928 27.5859 157.53 26.4583 156.736 25.664C155.939 24.8676 154.879 24.4715 153.53 24.4715H151.364V33.6201H153.53V33.6179Z" fill="#010101"></path><path d="M162.856 21.3527H174.217V24.4477H166.438V27.4085H173.931V30.5013H166.438V33.6395H174.327V36.7345H162.856V21.3527Z" fill="#010101"></path><path d="M178.613 21.3527H182.348L184.956 31.2307L187.586 21.396H190.834L193.642 31.3194L196.161 21.3527H199.851L195.386 36.7345H192.094L189.222 26.48L186.35 36.7345H183.058L178.617 21.3527H178.613Z" fill="#010101"></path><path d="M204.515 36.4922C203.543 36.0939 202.704 35.542 202.018 34.8127C201.31 34.0833 200.758 33.2435 200.381 32.2501C199.983 31.2783 199.784 30.2178 199.784 29.0448C199.784 27.8717 199.983 26.8134 200.381 25.8178C200.758 24.846 201.31 24.0062 202.018 23.2769C202.704 22.5475 203.543 21.9956 204.515 21.5974C205.465 21.1991 206.526 21 207.675 21C208.824 21 209.906 21.1991 210.88 21.5974C211.831 21.9956 212.67 22.5475 213.378 23.2769C214.086 24.0062 214.638 24.846 215.036 25.8178C215.412 26.8112 215.609 27.8739 215.609 29.0448C215.609 30.2157 215.41 31.2762 215.036 32.2501C214.638 33.2435 214.086 34.0833 213.378 34.8127C212.67 35.542 211.831 36.0939 210.88 36.4922C209.909 36.8904 208.848 37.0895 207.675 37.0895C206.502 37.0895 205.465 36.8904 204.515 36.4922ZM209.909 33.2868C210.549 32.8886 211.036 32.3151 211.411 31.5857C211.785 30.8563 211.963 30.0165 211.963 29.0448C211.963 28.073 211.785 27.2116 211.411 26.4822C211.036 25.7528 210.549 25.2009 209.909 24.7811C209.268 24.3828 208.517 24.1837 207.677 24.1837C206.837 24.1837 206.13 24.3828 205.489 24.7811C204.848 25.2009 204.34 25.7528 203.987 26.4822C203.61 27.2116 203.435 28.073 203.435 29.0448C203.435 30.0165 203.613 30.8563 203.987 31.5857C204.34 32.3151 204.848 32.8886 205.489 33.2868C206.13 33.7067 206.859 33.9058 207.677 33.9058C208.495 33.9058 209.268 33.7067 209.909 33.2868Z" fill="#010101"></path><path d="M216.891 21.3527H223.455C224.693 21.3527 225.754 21.5735 226.66 21.9934C227.567 22.4132 228.251 23.0106 228.738 23.7832C229.225 24.5559 229.468 25.4627 229.468 26.5016C229.468 27.5405 229.201 28.5123 228.695 29.2871C228.165 30.0598 227.457 30.6571 226.552 31.077L230.31 36.7345H226.221L222.994 31.696H220.496V36.7345H216.895V21.3527H216.891ZM222.946 28.6465C223.942 28.6465 224.669 28.469 225.135 28.0946C225.598 27.718 225.821 27.1877 225.821 26.4583C225.821 25.729 225.6 25.2204 225.135 24.8892C224.671 24.5581 223.942 24.4022 222.946 24.4022H220.494V28.6465H222.946Z" fill="#010101"></path><path d="M242.15 36.7345H231.056V21.3527H234.658V33.6179H242.15V36.7345Z" fill="#010101"></path><path d="M243.41 21.3527H249.399C250.968 21.3527 252.359 21.6622 253.53 22.3029C254.701 22.9435 255.63 23.8287 256.27 24.9779C256.911 26.1272 257.221 27.4756 257.221 29.0447C257.221 30.6138 256.911 31.9622 256.27 33.1114C255.63 34.2607 254.701 35.1437 253.53 35.7865C252.359 36.4293 250.968 36.7367 249.399 36.7367H243.41V21.3549V21.3527ZM249.178 33.6179C250.526 33.6179 251.587 33.2197 252.383 32.4254C253.18 31.6289 253.576 30.5034 253.576 29.0447C253.576 27.5859 253.178 26.4583 252.383 25.664C251.589 24.8697 250.526 24.4715 249.178 24.4715H247.011V33.6201H249.178V33.6179Z" fill="#010101"></path><path d="M262.46 24.8676C263.101 23.6513 263.986 22.7012 265.112 22.0172C266.239 21.3311 267.542 21 269.023 21C270.393 21 271.564 21.2424 272.514 21.7294C273.464 22.238 274.236 22.9003 274.812 23.74C275.364 24.6014 275.741 25.5516 275.94 26.6121H272.228C272.074 25.8827 271.741 25.3092 271.189 24.8438C270.637 24.4023 269.929 24.1815 269.023 24.1815C267.852 24.1815 266.923 24.6231 266.215 25.4866C265.508 26.3697 265.155 27.5644 265.155 29.0448C265.155 30.5252 265.508 31.6961 266.215 32.5813C266.923 33.4643 267.852 33.908 269.023 33.908C269.929 33.908 270.659 33.6872 271.211 33.2673C271.763 32.8475 272.118 32.2718 272.271 31.5878H275.94C275.762 32.6267 275.388 33.5768 274.812 34.395C274.239 35.2347 273.464 35.897 272.514 36.3623C271.564 36.8493 270.393 37.0917 269.023 37.0917C267.542 37.0917 266.237 36.7605 265.112 36.0528C263.984 35.3667 263.101 34.4166 262.46 33.2024C261.82 31.9882 261.51 30.6161 261.51 29.0469C261.51 27.4778 261.82 26.0861 262.46 24.8698V24.8676Z" fill="#010101"></path><path d="M280.05 36.2281C279.033 35.6524 278.26 34.8364 277.751 33.7759C277.221 32.737 276.955 31.4991 276.955 30.0619V21.3549H280.535V29.6204C280.535 30.9233 280.777 31.9622 281.286 32.737C281.773 33.5097 282.612 33.9079 283.783 33.9079C284.954 33.9079 285.816 33.5097 286.324 32.737C286.811 31.9644 287.054 30.9255 287.054 29.6204V21.3549H290.655V30.0619C290.655 31.4991 290.389 32.737 289.882 33.7759C289.352 34.8364 288.577 35.6545 287.562 36.2281C286.545 36.8038 285.285 37.0895 283.783 37.0895C282.281 37.0895 281.065 36.8016 280.048 36.2281H280.05Z" fill="#010101"></path><path d="M292.536 21.3527H298.901C300.161 21.3527 301.267 21.5735 302.171 22.015C303.078 22.4565 303.784 23.0755 304.271 23.872C304.758 24.6685 305 25.5948 305 26.6575C305 27.7201 304.758 28.6465 304.271 29.4429C303.784 30.261 303.078 30.88 302.171 31.3216C301.264 31.7631 300.161 31.9838 298.901 31.9838H296.139V36.7345H292.538V21.3527H292.536ZM298.371 28.9322C299.41 28.9322 300.161 28.733 300.648 28.3348C301.111 27.9582 301.355 27.3847 301.355 26.6553C301.355 25.9259 301.113 25.374 300.648 24.9758C300.161 24.5992 299.41 24.4001 298.371 24.4001H296.139V28.93H298.371V28.9322Z" fill="#010101"></path><path d="M139.289 47.1384C139.135 46.6709 138.936 46.2489 138.687 45.8766C138.439 45.5044 138.144 45.1841 137.804 44.92C137.465 44.656 137.077 44.4547 136.647 44.314C136.216 44.1733 135.742 44.1062 135.229 44.1062C134.385 44.1062 133.619 44.3248 132.926 44.7598C132.236 45.1949 131.686 45.8377 131.279 46.6861C130.872 47.5345 130.667 48.5755 130.667 49.8092C130.667 51.0428 130.872 52.0839 131.286 52.9323C131.699 53.7807 132.257 54.4235 132.961 54.8585C133.664 55.2936 134.458 55.5122 135.339 55.5122C136.155 55.5122 136.876 55.3369 137.499 54.9862C138.123 54.6356 138.61 54.14 138.96 53.4972C139.311 52.8544 139.486 52.099 139.486 51.2268L140.014 51.3372H135.731V49.807H141.155V51.3372C141.155 52.5103 140.906 53.5296 140.408 54.3975C139.91 55.2654 139.224 55.9364 138.35 56.4104C137.475 56.8843 136.473 57.1224 135.341 57.1224C134.08 57.1224 132.974 56.8259 132.021 56.2329C131.069 55.6399 130.327 54.7958 129.796 53.7006C129.266 52.6077 129 51.3091 129 49.807C129 48.6794 129.152 47.6665 129.455 46.764C129.758 45.8615 130.188 45.0932 130.744 44.459C131.301 43.8249 131.959 43.3379 132.718 42.9981C133.478 42.6605 134.316 42.4895 135.229 42.4895C135.98 42.4895 136.681 42.602 137.333 42.8271C137.984 43.0522 138.566 43.3704 139.077 43.7794C139.59 44.1906 140.016 44.6798 140.36 45.2468C140.702 45.8139 140.941 46.4437 141.07 47.1341H139.289V47.1384Z" fill="#010101"></path><path d="M155.138 49.8091C155.138 51.3112 154.868 52.6098 154.325 53.7028C153.781 54.7979 153.039 55.6398 152.093 56.235C151.147 56.828 150.067 57.1245 148.853 57.1245C147.639 57.1245 146.559 56.828 145.613 56.235C144.668 55.642 143.923 54.7979 143.382 53.7028C142.839 52.6098 142.568 51.3112 142.568 49.8091C142.568 48.3071 142.839 47.0085 143.382 45.9155C143.925 44.8226 144.668 43.9785 145.613 43.3855C146.559 42.7924 147.639 42.4959 148.853 42.4959C150.067 42.4959 151.147 42.7924 152.093 43.3855C153.039 43.9785 153.784 44.8226 154.325 45.9155C154.868 47.0107 155.138 48.3071 155.138 49.8091ZM153.47 49.8091C153.47 48.5755 153.264 47.5344 152.855 46.686C152.444 45.8376 151.89 45.1948 151.193 44.7598C150.496 44.3248 149.715 44.1062 148.853 44.1062C147.992 44.1062 147.211 44.3248 146.514 44.7598C145.817 45.1948 145.263 45.8376 144.851 46.686C144.44 47.5344 144.237 48.5755 144.237 49.8091C144.237 51.0428 144.442 52.0838 144.851 52.9322C145.263 53.7807 145.817 54.4235 146.514 54.8585C147.211 55.2935 147.992 55.5121 148.853 55.5121C149.715 55.5121 150.496 55.2935 151.193 54.8585C151.89 54.4235 152.444 53.7807 152.855 52.9322C153.266 52.0838 153.47 51.0428 153.47 49.8091Z" fill="#010101"></path><path d="M156.967 56.9298H155.16L160.389 42.6886H162.17L167.399 56.9298H165.592L161.337 44.9417H161.227L156.972 56.9298H156.967ZM157.634 51.3675H164.921V52.8977H157.634V51.3675Z" fill="#010101"></path><path d="M172.923 56.9297V55.6787L177.624 50.532C178.175 49.9303 178.63 49.4044 178.987 48.9564C179.344 48.5083 179.61 48.0863 179.783 47.6902C179.957 47.2942 180.043 46.8786 180.043 46.4414C180.043 45.9415 179.924 45.5064 179.686 45.1407C179.448 44.7749 179.121 44.4914 178.71 44.2923C178.297 44.0931 177.833 43.9936 177.318 43.9936C176.771 43.9936 176.295 44.1061 175.89 44.3312C175.485 44.5563 175.171 44.8701 174.951 45.2727C174.73 45.6753 174.619 46.1492 174.619 46.6903H172.979C172.979 45.8549 173.172 45.1234 173.557 44.4935C173.942 43.8637 174.466 43.3724 175.132 43.0196C175.797 42.6669 176.546 42.4915 177.375 42.4915C178.204 42.4915 178.948 42.6669 179.593 43.0196C180.238 43.3724 180.742 43.8464 181.108 44.4459C181.474 45.0433 181.658 45.7099 181.658 46.4414C181.658 46.9652 181.565 47.476 181.376 47.9738C181.188 48.4716 180.863 49.0256 180.402 49.636C179.941 50.2463 179.303 50.9886 178.487 51.8652L175.288 55.287V55.3974H181.909V56.9275H172.925L172.923 56.9297Z" fill="#010101"></path><path d="M188.439 57.1245C187.391 57.1245 186.499 56.8388 185.761 56.2653C185.023 55.6917 184.461 54.8606 184.071 53.7698C183.681 52.679 183.487 51.3588 183.487 49.8091C183.487 48.2595 183.681 46.9544 184.073 45.8636C184.465 44.7728 185.03 43.9373 185.77 43.3595C186.51 42.7816 187.398 42.4937 188.436 42.4937C189.475 42.4937 190.363 42.7816 191.103 43.3595C191.843 43.9373 192.408 44.7706 192.8 45.8636C193.191 46.9544 193.388 48.2703 193.388 49.8091C193.388 51.3479 193.194 52.6768 192.804 53.7698C192.414 54.8606 191.852 55.6939 191.114 56.2653C190.376 56.8367 189.484 57.1245 188.436 57.1245H188.439ZM188.439 55.5943C189.478 55.5943 190.283 55.0944 190.858 54.0923C191.434 53.0902 191.72 51.6639 191.72 49.8091C191.72 48.5755 191.588 47.5258 191.328 46.66C191.066 45.7921 190.69 45.132 190.2 44.6775C189.711 44.223 189.123 43.9958 188.436 43.9958C187.408 43.9958 186.603 44.5022 186.023 45.5151C185.443 46.528 185.153 47.9586 185.153 49.8091C185.153 51.0428 185.283 52.0903 185.543 52.9517C185.803 53.8131 186.177 54.4689 186.666 54.9191C187.155 55.3693 187.744 55.5943 188.436 55.5943H188.439Z" fill="#010101"></path><path d="M195.053 56.9297V55.6787L199.754 50.532C200.306 49.9303 200.76 49.4044 201.117 48.9564C201.474 48.5083 201.74 48.0863 201.914 47.6902C202.087 47.2942 202.173 46.8786 202.173 46.4414C202.173 45.9415 202.054 45.5064 201.816 45.1407C201.578 44.7749 201.251 44.4914 200.84 44.2923C200.427 44.0931 199.964 43.9936 199.448 43.9936C198.901 43.9936 198.425 44.1061 198.02 44.3312C197.615 44.5563 197.301 44.8701 197.081 45.2727C196.86 45.6753 196.75 46.1492 196.75 46.6903H195.109C195.109 45.8549 195.302 45.1234 195.687 44.4935C196.072 43.8637 196.596 43.3724 197.263 43.0196C197.927 42.6669 198.676 42.4915 199.505 42.4915C200.334 42.4915 201.078 42.6669 201.723 43.0196C202.368 43.3724 202.872 43.8464 203.238 44.4459C203.604 45.0433 203.788 45.7099 203.788 46.4414C203.788 46.9652 203.695 47.476 203.507 47.9738C203.318 48.4716 202.994 49.0256 202.533 49.636C202.072 50.2463 201.433 50.9886 200.617 51.8652L197.418 55.287V55.3974H204.039V56.9275H195.055L195.053 56.9297Z" fill="#010101"></path><path d="M210.374 57.1246C209.558 57.1246 208.822 56.9623 208.168 56.6377C207.515 56.313 206.991 55.8693 206.597 55.3023C206.203 54.7374 205.987 54.0924 205.95 53.3695H207.619C207.684 54.0145 207.976 54.5469 208.497 54.9646C209.019 55.3823 209.645 55.5945 210.372 55.5945C210.956 55.5945 211.476 55.4581 211.932 55.1832C212.389 54.9105 212.748 54.5339 213.01 54.0535C213.272 53.573 213.404 53.0297 213.404 52.4216C213.404 51.8134 213.268 51.2463 212.997 50.7572C212.727 50.2681 212.354 49.8828 211.88 49.5993C211.406 49.3158 210.867 49.1729 210.259 49.1686C209.824 49.1643 209.376 49.2292 208.917 49.3677C208.459 49.5062 208.08 49.6794 207.783 49.8936L206.171 49.6989L207.032 42.6886H214.432V44.2188H208.48L207.98 48.4197H208.065C208.357 48.1882 208.723 47.9955 209.164 47.8419C209.603 47.6882 210.064 47.6125 210.541 47.6125C211.413 47.6125 212.19 47.8202 212.874 48.2358C213.558 48.6513 214.094 49.2184 214.486 49.9369C214.878 50.6555 215.073 51.4758 215.073 52.3978C215.073 53.3198 214.869 54.1162 214.464 54.8283C214.06 55.5403 213.501 56.1009 212.791 56.5121C212.082 56.9233 211.276 57.1268 210.372 57.1268L210.374 57.1246Z" fill="#010101"></path><path d="M103.932 13.2276C96.5924 13.234 89.2504 13.2405 81.9106 13.2491L76.1282 58.5809L115 56.9611C111.311 42.3847 107.621 27.8061 103.932 13.2297V13.2276Z" fill="white"></path><path d="M0.00215 56.9611C1.36815 57.0751 2.73415 57.1891 4.098 57.3031L38.874 60.2008L29.6949 14.5785H4.31957C2.88043 28.7053 1.43914 42.8343 0 56.9611H0.00215Z" fill="white"></path><path d="M44.2735 64.7892L70.7287 63.1694L78.8279 -3.62396e-05L33.2057 5.39943L44.2735 64.7892Z" fill="#D2303C"></path><path d="M13.219 54.6679C13.2943 54.5668 12.8404 53.7623 12.8167 53.5407C12.7909 53.3041 12.9071 53.1385 12.8985 52.947C12.8791 52.5555 12.294 51.7596 12.8038 51.5702L12.38 50.1634H12.6963L12.2768 48.6403L12.6963 48.5887L12.3736 47.1883C13.0232 46.9151 12.4231 46.1213 12.4897 45.5491L12.8081 45.4889L12.5908 43.9744L13.0082 44.0777L12.9049 42.3998L13.3223 42.503L13.2211 41.0381C14.0257 41.1865 13.7611 39.9711 13.6385 39.4634H14.1634L14.1784 38.0608L14.3161 37.9124L14.6861 37.9941L14.7033 36.6991L14.856 36.5292L15.211 36.6303L15.4218 35.0556L15.8972 35.0599L16.1575 33.5864L16.5748 33.795L16.8911 32.2225L17.3148 32.2849L17.6246 31.6439C17.3105 31.4352 16.7147 31.6245 16.3662 31.7493C14.699 32.343 13.4277 33.9134 13.219 35.6816C13.062 35.6881 13.0383 35.3116 13.0232 35.1976C12.991 34.9395 13.0168 34.6813 13.0103 34.4232C12.7931 34.1844 12.3822 35.3331 12.3327 35.4751C12.0401 36.3205 11.896 37.1939 11.9606 38.0931L11.4357 36.7314C11.2593 36.5937 11.1259 37.7575 11.1173 37.9318C11.0958 38.3728 11.1625 38.7019 11.2012 39.1171C11.2722 39.8635 10.459 38.476 10.3859 38.3577C8.61546 35.4192 8.87576 31.5428 12.7995 30.9619C12.7995 30.7705 12.3478 30.8501 12.2252 30.8608C11.7433 30.8974 11.27 31.0523 10.8075 31.1727C11.5454 30.3359 13.0985 29.7013 14.215 29.7056C14.8603 29.7099 15.51 30.0821 16.1554 30.0713C14.5334 28.9893 12.6317 29.0194 10.8075 29.4927L12.066 28.6559C10.6634 28.658 9.25222 28.8903 8.02819 29.5981C7.98302 29.17 8.66279 28.9226 8.81553 28.5505C7.95936 28.7268 7.05371 29.0775 6.34812 29.5981C6.05126 29.6777 6.41696 29.0302 6.44923 28.9656C7.7722 26.2853 10.8613 24.9429 13.6686 26.1626C14.0515 26.3304 14.4495 26.7327 14.7915 26.7176L13.6385 25.7217C14.955 25.9884 16.1747 26.694 17.0481 27.7115L17.8333 28.9699C17.6289 27.5975 16.8222 26.2358 15.6326 25.5087C15.609 25.3043 16.0478 25.4614 16.1188 25.4936C16.2758 25.5603 16.5404 26.0013 16.7857 25.6162C16.6523 25.6162 16.5684 25.5345 16.4866 25.4442C15.8413 24.7278 15.1723 23.9061 14.1655 23.7254L15.2131 23.6199C14.8302 23.0671 14.0364 22.8283 13.4298 22.5702C13.3868 22.3335 13.4427 22.4045 13.5632 22.3378C13.7331 22.2453 14.1483 22.1227 14.3527 22.0797C17.1729 21.4645 18.769 23.6737 18.9906 26.2422C19.1756 26.2659 19.096 25.997 19.0917 25.8765C19.0767 25.528 18.9347 25.1258 19.0422 24.773L19.6188 27.0812C19.7349 27.2124 20.2835 26.5563 20.4082 26.4552C21.202 25.8185 22.0023 25.4011 22.9251 24.986C23.2435 24.9687 22.9983 25.1 22.9058 25.1774C22.5379 25.4829 22.0733 25.7044 21.8216 26.1368C22.5379 25.812 23.1618 25.2807 23.9211 25.0397C26.5864 24.1965 28.757 25.4936 29.4776 28.131C28.6494 27.8449 27.8707 27.2877 26.9607 27.2942L27.9051 28.3418C26.7607 27.8556 25.47 27.434 24.2352 27.7653L25.1796 28.4472C23.5834 28.1138 21.7936 28.2773 20.4599 29.2862C22.5788 28.6365 24.7945 29.0775 26.5413 30.3897L24.2352 30.0735C25.371 30.4672 26.4703 30.7232 27.4319 31.4933C29.8498 33.4272 30.28 36.996 28.9033 39.6699L27.8019 36.6798C27.6255 36.527 27.7007 36.9035 27.6964 36.9938C27.6814 37.2348 27.7072 37.4714 27.6835 37.7166C27.6728 37.8328 27.6362 38.2932 27.4878 38.3061C27.1565 36.7895 26.367 35.1288 25.1796 34.1113C25.1968 34.4856 25.3538 34.8427 25.3861 35.2148C25.3968 35.3288 25.47 35.7031 25.285 35.6838C24.6547 33.8058 22.7896 32.1214 20.8794 31.5944L22.2948 32.4333C23.7082 33.6143 24.5514 35.1955 24.6547 37.0476L23.7555 35.5891L23.1876 35.0578C26.1992 39.4225 21.9098 43.1441 17.6289 43.4452C18.4119 42.7267 19.0939 41.9437 19.7263 41.0854C19.124 41.0015 18.5991 41.8082 17.9451 41.7157C18.8035 40.9671 19.4725 40.0227 19.9221 38.9729C20.0727 38.6223 20.3502 38.1469 20.1996 37.7812L18.9928 38.7234C19.2853 38.0565 19.7048 37.452 19.8855 36.7314C20.1867 35.531 20.0554 34.0747 19.4338 32.9862C18.8895 32.0311 18.9003 32.8958 18.7217 33.2615C18.5754 33.5627 18.1689 33.9542 18.1 34.1134C18.0441 34.2403 18.1495 34.3995 18.0764 34.5996C17.8806 35.1438 17.2094 36.1248 16.9728 36.7658C16.207 38.8482 15.794 40.7563 15.4842 42.9225C15.4455 43.1979 15.1034 43.8604 15.1056 44.0153C15.1056 44.0777 15.3228 44.0239 15.3336 44.224C15.3551 44.6026 15.0604 45.0995 15.0045 45.4846L15.3207 45.5383L15.0045 46.9517L15.3207 47.0054C15.3809 47.0635 15.041 48.0939 15.112 48.4016C15.1314 48.4855 15.3013 48.4274 15.3293 48.6231C15.3874 49.0362 15.2648 49.4771 15.2088 49.8816L15.6133 50.0924C15.4369 50.4323 15.5079 50.9163 15.4261 51.2347C15.3917 51.3659 15.1723 51.2347 15.2174 51.4089H15.8456L15.6584 52.6415L15.809 52.8674L16.2629 52.8222C19.836 50.5205 22.7272 47.369 27.406 48.5048C27.9589 48.6382 29.2883 49.0598 28.3655 49.7159C27.8599 50.0752 27.0145 50.2473 26.4079 50.6947C25.4356 51.4089 24.261 53.0115 25.7883 53.7946C28.5956 55.2337 33.9973 52.3318 36.882 50.2408L29.7056 14.5699H4.33031L0.0107422 56.9525L4.10659 57.2945C7.27743 56.8514 10.2826 55.9501 13.2276 54.6615L13.219 54.6679Z" fill="#2D683D"></path><path d="M34.8061 52.9233C32.216 54.3001 26.4466 56.8578 24.2889 53.8247C23.5919 52.8437 24.1297 51.3314 24.8956 50.5118C25.0806 50.3139 25.9539 49.7202 26.012 49.5825C26.1088 49.3524 25.4484 49.3265 25.3473 49.3287C21.4967 49.4621 18.1021 53.317 14.8452 55.0917C14.1095 55.4918 12.9608 55.9737 12.167 56.2942C10.8526 56.8234 9.4931 57.2816 8.10559 57.6366L38.8739 60.2008L37.1186 51.4799C36.4022 51.9962 35.6386 52.4823 34.8061 52.9233Z" fill="#3379FF"></path><path d="M103.932 13.2276C96.5924 13.234 89.2504 13.2405 81.9106 13.2491C80.6349 23.2542 79.3571 33.2594 78.0815 43.2667C78.7268 42.7461 79.4087 42.2556 80.1466 41.8146C84.0166 39.5021 89.8226 39.2741 93.1483 42.6686C93.5054 43.0322 93.3979 43.3075 93.1957 43.7206L93.0322 43.7937C91.1757 43.641 90.098 42.8128 88.2501 43.7292C86.0408 44.8241 85.1309 48.2531 86.8239 50.1462C90.853 54.6507 100.49 52.8222 101.564 46.5537C102.388 41.7479 98.1606 36.6496 93.1161 37.8952C92.5976 38.0242 91.2424 38.7492 90.8229 38.334C90.5777 37.9554 90.5863 37.5897 90.9907 37.3445C91.4833 37.0433 93.6065 36.4496 94.1873 36.441C102.502 36.3076 106.23 47.4851 99.1544 52.1145C95.5749 54.4571 91.2639 54.5174 87.594 52.3662C82.8399 49.5761 84.2166 43.1699 89.4612 42.0018C89.6247 41.9652 89.6441 42.0728 89.6182 41.7953C86.1677 40.7864 82.771 41.4898 79.8755 43.5356C79.1506 44.0476 78.4794 44.5896 77.8405 45.1511C77.2705 49.6277 76.6982 54.1043 76.1282 58.5809C89.0847 58.041 102.043 57.501 115 56.9611C111.595 43.5076 108.189 30.0541 104.786 16.6006C104.502 15.4777 104.218 14.3526 103.932 13.2297V13.2276ZM85.5353 37.2219C85.3094 37.0906 83.5992 35.5611 83.4271 35.346C83.0722 34.9007 83.1733 34.1822 83.7971 34.1844C83.9477 34.1844 84.0962 34.2597 84.2166 34.3457C84.6942 35.0126 85.9871 35.7332 86.3721 36.385C86.7077 36.9573 86.1979 37.6048 85.5375 37.2219H85.5353ZM92.5266 34.1629C92.5116 34.2339 92.3675 34.4812 92.3115 34.5243C91.8254 34.9222 91.4704 34.5329 91.3241 34.0553C91.2015 33.6595 90.9003 32.1214 90.9046 31.7557C90.9132 31.2265 91.3521 30.9512 91.8533 31.1125C91.9996 31.1598 92.0297 31.2867 92.0792 31.4094C92.2319 31.7837 92.5976 33.8423 92.5245 34.1607L92.5266 34.1629ZM100.189 32.3817C100.153 32.5732 99.3373 34.3629 99.2061 34.5501C98.6855 35.2901 97.9003 34.9696 98.0251 34.2188C98.0724 33.9348 98.8317 32.229 99.0124 31.945C99.0899 31.8245 99.3201 31.5664 99.447 31.532C99.9461 31.3965 100.284 31.9063 100.191 32.3817H100.189ZM103.351 38.704C103.412 38.1232 105.855 37.1831 106.369 36.7787L107.077 36.968C107.2 37.323 107.183 37.594 106.924 37.8672C106.821 37.9769 104.476 39.2848 104.3 39.3322C103.814 39.4634 103.291 39.2719 103.349 38.704H103.351ZM105.412 53.9473C105.236 53.8548 103.433 52.1618 103.306 51.9639C103.085 51.6197 103.113 51.0626 103.532 50.9356C104.294 50.7076 105.567 52.7233 106.258 53.0459C106.634 53.758 106.2 54.356 105.41 53.9473H105.412ZM108.166 47.298C107.865 47.2722 105.894 46.6569 105.759 46.4698C105.617 46.2719 105.617 45.7491 105.793 45.5964C106.111 45.3189 108.028 45.8997 108.413 46.1213C109.097 46.5171 108.833 47.3561 108.166 47.298Z" fill="#FFB022"></path><path d="M56.0156 17.8433L53.1818 20.6771L56.0156 23.5109L58.8494 20.6771L56.0156 17.8433Z" fill="white"></path><path d="M56.0145 23.347L53.1807 26.1809L56.0145 29.0147L58.8483 26.1809L56.0145 23.347Z" fill="white"></path><path d="M56.0149 28.8694L53.181 31.7032L56.0149 34.5371L58.8487 31.7032L56.0149 28.8694Z" fill="white"></path><path d="M56.0146 34.4666L53.1808 37.3004L56.0146 40.1342L58.8485 37.3004L56.0146 34.4666Z" fill="white"></path><path d="M56.0157 40.0823L53.1819 42.9161L56.0157 45.75L58.8496 42.9161L56.0157 40.0823Z" fill="white"></path><path d="M61.6849 23.3502L58.8511 26.184L61.6849 29.0179L64.5188 26.184L61.6849 23.3502Z" fill="white"></path><path d="M61.6837 28.8689L58.8499 31.7028L61.6837 34.5366L64.5175 31.7028L61.6837 28.8689Z" fill="white"></path><path d="M67.3525 28.8706L64.5187 31.7044L67.3525 34.5383L70.1863 31.7044L67.3525 28.8706Z" fill="white"></path><path d="M61.685 34.4698L58.8512 37.3036L61.685 40.1374L64.5189 37.3036L61.685 34.4698Z" fill="white"></path><path d="M47.5139 26.1826L50.3478 29.0164L53.1816 26.1826L50.3478 23.3487L47.5139 26.1826Z" fill="white"></path><path d="M47.5127 31.7037L50.3466 34.5375L53.1804 31.7037L50.3466 28.8699L47.5127 31.7037Z" fill="white"></path><path d="M41.8449 31.7021L44.6787 34.5359L47.5125 31.7021L44.6787 28.8682L41.8449 31.7021Z" fill="white"></path><path d="M47.5141 37.3019L50.3479 40.1358L53.1817 37.3019L50.3479 34.4681L47.5141 37.3019Z" fill="white"></path></svg>